# xmcd CD database file
#
# Track frame offsets:
#	150
#	7080
#	28035
#	46922
#	66480
#	89110
#	109217
#	134645
#	158867
#	177917
#	202532
#	218900
#
# Disc length: 4266 seconds
#
# Revision: 0
# Processed by: cddbd v1.5.1PL0 Copyright (c) Steve Scherf et al.
# Submitted via: CDex 1.51
#
DISCID=ae10a80c
DTITLE=跡部景吾（諏訪部順一） - 破滅への輪舞曲（ロンド）
DYEAR=2003
DGENRE=Anime
TTITLE0=破滅への輪舞曲(ロンド) 〜Introduction〜
TTITLE1=Spirit Way
TTITLE2=宿敵（ライバル）
TTITLE3=方舟
TTITLE4=楽園（エデン）のむこうへ "the other side of Eden"
TTITLE5=孤高の翼
TTITLE6=Go To The Top!
TTITLE7=BOY'S CLOUD
TTITLE8=KA･BA･JI
TTITLE9=No Wonder
TTITLE10=Stage
TTITLE11=October
EXTD=YEAR: 2003
EXTT0=
EXTT1=
EXTT2=
EXTT3=
EXTT4=
EXTT5=
EXTT6=
EXTT7=
EXTT8=
EXTT9=
EXTT10=
EXTT11=
PLAYORDER=
